<svg width="361" height="361" viewBox="0 0 361 361" fill="none" xmlns="http://www.w3.org/2000/svg">
<g opacity="0.2">
<path d="M355.686 180.576L355.467 184.619L337.595 189.235L337.592 189.297L354.855 195.939L354.641 199.888L332.847 191.099L333.081 186.777L355.686 180.576Z" fill="white"/>
<path d="M353.947 203.304L353.394 207.158L331.383 204L331.936 200.146L353.947 203.304Z" fill="white"/>
<path d="M352.517 213.144L348.861 228.729L345.586 227.961L348.353 216.166L342.683 214.836L340.122 225.751L337.03 225.026L339.591 214.11L333.253 212.623L330.436 224.631L327.162 223.862L330.868 208.065L352.517 213.144Z" fill="white"/>
<path d="M348.136 232.535L346.65 236.2L329.381 233.534L329.358 233.592L343.432 244.137L341.934 247.832L324.537 245.483L324.513 245.541L338.716 255.769L337.229 259.434L318.927 245.393L320.413 241.727L337.846 243.99L337.869 243.932L323.819 233.329L325.328 229.605L348.136 232.535Z" fill="white"/>
<path d="M330.18 271.265L324.702 279.404C323.821 280.713 322.913 281.654 321.978 282.226C321.043 282.798 320.14 283.116 319.27 283.181C318.4 283.247 317.577 283.131 316.801 282.834C316.013 282.554 315.335 282.223 314.767 281.84C314.198 281.458 313.636 280.954 313.08 280.33C312.53 279.735 312.121 279.022 311.854 278.191C311.587 277.361 311.542 276.405 311.72 275.323C311.915 274.253 312.452 273.063 313.333 271.754L316.637 266.844L309.557 262.08L311.731 258.85L330.18 271.265ZM319.273 268.618L316.091 273.346C315.847 273.708 315.65 274.113 315.498 274.562C315.346 275.01 315.278 275.465 315.293 275.926C315.314 276.415 315.451 276.882 315.702 277.327C315.959 277.8 316.38 278.234 316.966 278.628C317.569 279.034 318.127 279.284 318.639 279.378C319.151 279.472 319.617 279.449 320.038 279.306C320.477 279.176 320.866 278.95 321.207 278.629C321.549 278.308 321.864 277.932 322.154 277.502L325.371 272.721L319.273 268.618Z" fill="white"/>
<path d="M309.055 295.051C309.842 294.167 310.347 293.241 310.57 292.272C310.779 291.318 310.76 290.371 310.514 289.429C310.284 288.501 309.878 287.598 309.298 286.72C308.704 285.858 308.011 285.075 307.22 284.371C306.429 283.667 305.571 283.07 304.645 282.579C303.705 282.105 302.754 281.8 301.79 281.665C300.842 281.543 299.906 281.642 298.984 281.96C298.047 282.294 297.186 282.903 296.399 283.787C295.612 284.671 295.114 285.59 294.905 286.544C294.682 287.512 294.685 288.461 294.916 289.389C295.162 290.33 295.582 291.232 296.176 292.095C296.757 292.973 297.443 293.764 298.234 294.468C299.025 295.172 299.89 295.761 300.829 296.236C301.755 296.726 302.692 297.032 303.64 297.153C304.604 297.288 305.554 297.189 306.491 296.855C307.413 296.536 308.268 295.935 309.055 295.051ZM311.428 297.163C310.324 298.404 309.104 299.306 307.769 299.869C306.42 300.447 305.047 300.726 303.648 300.704C302.25 300.683 300.865 300.381 299.493 299.799C298.107 299.233 296.824 298.425 295.646 297.376C294.451 296.313 293.492 295.126 292.769 293.815C292.032 292.52 291.571 291.179 291.388 289.792C291.204 288.406 291.321 287.009 291.739 285.603C292.159 284.225 292.921 282.916 294.026 281.675C295.13 280.435 296.349 279.518 297.682 278.926C299.017 278.363 300.384 278.092 301.782 278.113C303.18 278.135 304.572 278.429 305.958 278.995C307.331 279.577 308.614 280.4 309.808 281.463C310.987 282.512 311.945 283.684 312.682 284.979C313.405 286.29 313.859 287.639 314.043 289.025C314.226 290.412 314.116 291.8 313.711 293.192C313.293 294.598 312.532 295.922 311.428 297.163Z" fill="white"/>
<path d="M300.239 308.173L292.154 315.059C290.288 316.647 288.546 317.435 286.927 317.423C285.308 317.411 283.886 316.686 282.661 315.248C281.974 314.442 281.521 313.669 281.3 312.929C281.093 312.206 281.006 311.543 281.039 310.942C281.086 310.357 281.207 309.858 281.402 309.447C281.581 309.049 281.722 308.766 281.824 308.597L281.783 308.55C281.504 308.733 281.168 308.883 280.775 308.999C280.367 309.128 279.916 309.158 279.42 309.089C278.939 309.036 278.43 308.855 277.895 308.547C277.344 308.253 276.786 307.774 276.221 307.11C275.373 306.114 274.528 305.265 273.685 304.565C272.841 303.893 272.112 303.518 271.5 303.439L274.677 300.734C275.208 300.909 275.686 301.197 276.11 301.6C276.519 302.015 276.898 302.429 277.248 302.84C277.908 303.614 278.521 304.238 279.087 304.71C279.666 305.198 280.237 305.517 280.8 305.665C281.376 305.829 281.959 305.809 282.55 305.606C283.124 305.417 283.752 305.032 284.431 304.454L288.794 300.738L282.858 293.767L285.822 291.243L300.239 308.173ZM290.713 302.991L285.852 307.13C284.903 307.938 284.373 308.772 284.26 309.632C284.16 310.507 284.494 311.396 285.261 312.297C285.719 312.834 286.168 313.202 286.609 313.399C287.063 313.612 287.513 313.692 287.959 313.64C288.39 313.601 288.813 313.458 289.231 313.211C289.632 312.979 290.023 312.701 290.402 312.377L295.216 308.278L290.713 302.991Z" fill="white"/>
<path d="M283.791 321.858L268.747 331.743L266.9 328.932L272.808 325.05L262.444 309.277L265.698 307.139L276.062 322.912L281.944 319.047L283.791 321.858Z" fill="white"/>
<path d="M264.683 333.944L250.948 340.807L249.445 337.798L259.697 332.675L257.094 327.466L248.095 331.962L246.675 329.121L255.674 324.624L251.261 315.792L254.743 314.052L264.683 333.944Z" fill="white"/>
<path d="M236.411 343.446C237.529 343.06 238.423 342.498 239.091 341.762C239.74 341.033 240.187 340.197 240.433 339.256C240.685 338.334 240.773 337.348 240.696 336.298C240.599 335.255 240.378 334.233 240.032 333.232C239.686 332.232 239.23 331.291 238.662 330.411C238.074 329.537 237.393 328.806 236.619 328.217C235.851 327.647 234.987 327.276 234.026 327.103C233.046 326.936 231.997 327.046 230.878 327.432C229.759 327.819 228.876 328.377 228.227 329.106C227.559 329.842 227.098 330.671 226.846 331.593C226.6 332.535 226.525 333.527 226.622 334.57C226.699 335.62 226.911 336.645 227.256 337.646C227.602 338.647 228.069 339.584 228.656 340.458C229.224 341.338 229.892 342.063 230.66 342.632C231.434 343.221 232.312 343.599 233.292 343.766C234.252 343.939 235.292 343.833 236.411 343.446ZM237.448 346.449C235.878 346.991 234.373 347.182 232.933 347.02C231.474 346.865 230.14 346.437 228.93 345.734C227.721 345.031 226.66 344.091 225.748 342.912C224.816 341.741 224.092 340.409 223.577 338.918C223.055 337.407 222.799 335.902 222.809 334.405C222.799 332.915 223.053 331.52 223.571 330.221C224.088 328.922 224.873 327.761 225.926 326.738C226.966 325.742 228.271 324.972 229.841 324.43C231.41 323.887 232.922 323.684 234.374 323.819C235.814 323.981 237.139 324.413 238.348 325.115C239.557 325.818 240.628 326.755 241.56 327.927C242.472 329.105 243.19 330.45 243.712 331.961C244.227 333.453 244.489 334.943 244.499 336.434C244.489 337.931 244.225 339.329 243.708 340.628C243.19 341.928 242.415 343.085 241.382 344.101C240.329 345.124 239.018 345.906 237.448 346.449Z" fill="white"/>
<path d="M222.367 350.478L218.554 351.265L214.735 332.782L203.664 335.07L202.983 331.776L217.867 328.701L222.367 350.478Z" fill="white"/>
<path d="M203.426 353.933L199.563 354.412L196.827 332.344L200.691 331.865L203.426 353.933Z" fill="white"/>
<path d="M183.76 352.769C184.943 352.742 185.965 352.479 186.826 351.982C187.666 351.485 188.346 350.825 188.867 350.003C189.389 349.202 189.772 348.289 190.019 347.266C190.244 346.243 190.345 345.202 190.32 344.144C190.296 343.085 190.147 342.05 189.874 341.039C189.581 340.028 189.155 339.124 188.597 338.327C188.039 337.551 187.329 336.934 186.467 336.476C185.584 336.019 184.551 335.804 183.368 335.831C182.184 335.859 181.173 336.121 180.333 336.618C179.472 337.116 178.781 337.765 178.26 338.566C177.739 339.388 177.365 340.311 177.14 341.334C176.894 342.357 176.783 343.398 176.807 344.457C176.832 345.515 176.991 346.55 177.284 347.561C177.557 348.572 177.972 349.466 178.53 350.242C179.088 351.039 179.809 351.666 180.692 352.124C181.554 352.581 182.577 352.797 183.76 352.769ZM183.833 355.945C182.173 355.984 180.681 355.707 179.359 355.114C178.016 354.522 176.876 353.707 175.938 352.67C175 351.633 174.276 350.414 173.766 349.013C173.235 347.613 172.952 346.124 172.915 344.547C172.878 342.949 173.092 341.438 173.558 340.015C174.003 338.592 174.669 337.341 175.558 336.261C176.447 335.182 177.548 334.315 178.862 333.661C180.156 333.029 181.633 332.694 183.294 332.655C184.955 332.617 186.456 332.883 187.798 333.454C189.121 334.047 190.251 334.862 191.188 335.899C192.126 336.937 192.861 338.155 193.391 339.555C193.902 340.956 194.175 342.455 194.212 344.054C194.249 345.631 194.045 347.131 193.6 348.554C193.134 349.977 192.457 351.228 191.569 352.308C190.68 353.388 189.589 354.254 188.295 354.907C186.981 355.561 185.494 355.907 183.833 355.945Z" fill="white"/>
<path d="M152.194 353.463L148.235 352.614L146.477 334.239L146.416 334.226L137.151 350.235L133.284 349.406L145.379 329.258L149.612 330.166L152.194 353.463Z" fill="white"/>
<path d="M130.458 348.297L126.737 347.152L133.281 325.899L137.002 327.045L130.458 348.297Z" fill="white"/>
<path d="M120.868 345.294L106.033 339.279L107.297 336.162L118.524 340.714L120.713 335.317L110.322 331.104L111.516 328.16L121.906 332.373L124.352 326.34L112.922 321.706L114.186 318.589L129.224 324.686L120.868 345.294Z" fill="white"/>
<path d="M102.499 337.985L99.1085 335.948L104.421 319.302L104.368 319.27L91.7667 331.537L88.3494 329.485L93.3682 312.662L93.3148 312.63L81.0075 325.074L77.6169 323.038L94.3272 307.135L97.7178 309.172L92.779 326.042L92.8324 326.074L105.487 313.839L108.931 315.907L102.499 337.985Z" fill="white"/>
<path d="M67.1641 314.346L59.9554 307.692C58.7959 306.621 58.0049 305.58 57.5824 304.569C57.1599 303.557 56.9827 302.617 57.0508 301.747C57.1189 300.877 57.3589 300.082 57.7708 299.36C58.1675 298.624 58.5982 298.004 59.063 297.501C59.5277 296.997 60.111 296.519 60.8128 296.064C61.4853 295.611 62.2522 295.316 63.1136 295.179C63.975 295.042 64.9268 295.143 65.969 295.484C66.997 295.839 68.0908 296.552 69.2503 297.622L73.5984 301.636L79.3866 295.366L82.2472 298.006L67.1641 314.346ZM71.4437 303.97L67.2558 300.105C66.9354 299.809 66.5651 299.552 66.145 299.334C65.7248 299.115 65.2859 298.979 64.8282 298.923C64.3412 298.869 63.8588 298.933 63.3812 299.113C62.8742 299.295 62.3813 299.646 61.9024 300.164C61.4095 300.698 61.0774 301.211 60.9061 301.703C60.7347 302.195 60.6872 302.659 60.7634 303.097C60.8256 303.55 60.9894 303.97 61.2546 304.356C61.5198 304.742 61.8431 305.111 62.2245 305.463L66.4582 309.371L71.4437 303.97Z" fill="white"/>
<path d="M46.9217 289.862C47.6759 290.774 48.5148 291.414 49.4385 291.782C50.349 292.134 51.2883 292.26 52.2563 292.16C53.2084 292.073 54.1624 291.809 55.1185 291.369C56.0614 290.913 56.9408 290.347 57.7569 289.673C58.573 288.998 59.2937 288.24 59.9191 287.4C60.5311 286.544 60.9772 285.65 61.2573 284.718C61.5214 283.799 61.5662 282.859 61.3918 281.899C61.2042 280.922 60.7333 279.978 59.9792 279.066C59.2251 278.154 58.3927 277.522 57.4823 277.17C56.5585 276.802 55.6207 276.662 54.6686 276.749C53.7005 276.849 52.7451 277.127 51.8022 277.583C50.8462 278.023 49.9601 278.581 49.144 279.255C48.3279 279.93 47.6138 280.696 47.0017 281.552C46.3764 282.392 45.9317 283.272 45.6676 284.191C45.3875 285.123 45.3413 286.077 45.5289 287.053C45.7033 288.014 46.1676 288.95 46.9217 289.862ZM44.4735 291.886C43.415 290.606 42.7091 289.264 42.3556 287.859C41.989 286.437 41.9226 285.038 42.1565 283.659C42.3905 282.28 42.8994 280.957 43.6832 279.689C44.4538 278.405 45.4472 277.261 46.6633 276.255C47.8954 275.236 49.2143 274.469 50.62 273.954C52.0124 273.422 53.4077 273.171 54.8059 273.2C56.2042 273.229 57.5667 273.558 58.8935 274.185C60.191 274.809 61.369 275.762 62.4275 277.042C63.4859 278.322 64.2064 279.666 64.5891 281.074C64.9426 282.479 65.0023 283.871 64.7684 285.249C64.5344 286.628 64.0322 287.96 63.2616 289.243C62.4777 290.511 61.4698 291.654 60.2376 292.673C59.0215 293.678 57.7172 294.447 56.3248 294.979C54.9191 295.494 53.5172 295.737 52.119 295.708C50.7208 295.679 49.3649 295.358 48.0513 294.747C46.7245 294.12 45.5319 293.166 44.4735 291.886Z" fill="white"/>
<path d="M35.3175 279.157L29.7486 270.114C28.4639 268.028 27.9512 266.185 28.2105 264.587C28.4698 262.989 29.4038 261.694 31.0126 260.703C31.9143 260.148 32.7473 259.818 33.5117 259.713C34.2585 259.619 34.9263 259.634 35.5154 259.759C36.0867 259.895 36.5608 260.091 36.9377 260.347C37.3036 260.584 37.5621 260.767 37.7132 260.893L37.7662 260.86C37.6274 260.556 37.5307 260.201 37.4761 259.795C37.4107 259.372 37.45 258.922 37.594 258.443C37.7204 257.975 37.9767 257.5 38.3628 257.018C38.7381 256.519 39.297 256.041 40.0395 255.583C41.1533 254.898 42.1209 254.192 42.9422 253.467C43.735 252.735 44.217 252.072 44.3882 251.479L46.5766 255.032C46.3224 255.53 45.9641 255.958 45.5017 256.316C45.0285 256.656 44.562 256.968 44.1023 257.251C43.236 257.785 42.5262 258.295 41.9727 258.782C41.4016 259.28 40.9998 259.796 40.7674 260.329C40.5173 260.873 40.4474 261.453 40.5578 262.067C40.6573 262.665 40.9411 263.343 41.4092 264.103L44.4142 268.983L52.2108 264.182L54.2522 267.496L35.3175 279.157ZM41.8948 270.534L38.547 265.098C37.8937 264.037 37.1508 263.385 36.3183 263.142C35.4681 262.91 34.5391 263.104 33.5314 263.724C32.9303 264.095 32.4985 264.482 32.2361 264.888C31.9561 265.304 31.8079 265.737 31.7918 266.186C31.7647 266.617 31.841 267.057 32.0207 267.508C32.1895 267.94 32.4045 268.369 32.6658 268.793L35.9811 274.176L41.8948 270.534Z" fill="white"/>
<path d="M24.3004 260.788L16.8576 244.397L19.9202 243.007L22.8433 249.444L40.028 241.641L41.6376 245.185L24.4529 252.989L27.363 259.398L24.3004 260.788Z" fill="white"/>
<path d="M15.39 240.25L10.7054 225.628L13.9086 224.602L17.4054 235.517L22.9517 233.74L19.8825 224.16L22.9078 223.19L25.977 232.77L35.379 229.758L36.5668 233.466L15.39 240.25Z" fill="white"/>
<path d="M10.3061 210.673C10.5145 211.838 10.9305 212.808 11.5541 213.582C12.1741 214.336 12.9302 214.907 13.8223 215.296C14.694 215.689 15.6544 215.928 16.7034 216.015C17.7488 216.081 18.7926 216.021 19.835 215.834C20.8774 215.648 21.8774 215.342 22.835 214.918C23.7889 214.473 24.6169 213.914 25.319 213.24C26.0006 212.569 26.5015 211.773 26.8217 210.851C27.1382 209.909 27.1923 208.855 26.9839 207.69C26.7755 206.525 26.3614 205.565 25.7414 204.812C25.1178 204.037 24.3701 203.454 23.4984 203.061C22.6062 202.673 21.6374 202.445 20.5921 202.379C19.5431 202.292 18.4974 202.342 17.455 202.529C16.4127 202.715 15.4145 203.031 14.4605 203.476C13.5029 203.9 12.6833 204.447 12.0017 205.118C11.2996 205.792 10.7904 206.6 10.4738 207.542C10.1536 208.465 10.0977 209.508 10.3061 210.673ZM7.17901 211.232C6.88654 209.597 6.93172 208.081 7.31455 206.684C7.69373 205.266 8.32408 204.014 9.20558 202.929C10.0871 201.843 11.1807 200.941 12.4864 200.222C13.7885 199.483 15.2162 198.974 16.7695 198.697C18.3433 198.415 19.869 198.395 21.3465 198.637C22.8204 198.859 24.159 199.326 25.3622 200.039C26.5654 200.751 27.5906 201.707 28.4378 202.905C29.2608 204.087 29.8185 205.495 30.111 207.131C30.4035 208.766 30.3704 210.29 30.0116 211.704C29.6288 213.102 28.9966 214.343 28.1151 215.429C27.2336 216.515 26.1418 217.427 24.8397 218.166C23.534 218.885 22.0942 219.385 20.5205 219.666C18.9671 219.944 17.4535 219.972 15.9796 219.751C14.5021 219.509 13.1617 219.032 11.9585 218.319C10.7552 217.606 9.73188 216.661 8.88841 215.483C8.04128 214.284 7.47148 212.867 7.17901 211.232Z" fill="white"/>
<path d="M5.53792 195.856L5.34271 191.968L24.1924 191.021L23.6256 179.73L26.9849 179.561L27.747 194.741L5.53792 195.856Z" fill="white"/>
<path d="M5.01428 176.092L5.14948 172.201L27.3731 172.974L27.2379 176.864L5.01428 176.092Z" fill="white"/>
<path d="M9.20684 156.761C9.04774 157.933 9.14618 158.984 9.50217 159.912C9.86094 160.82 10.4052 161.596 11.1351 162.24C11.8443 162.881 12.6849 163.403 13.6568 163.807C14.6314 164.191 15.6434 164.454 16.6927 164.596C17.742 164.739 18.7874 164.755 19.8291 164.645C20.8735 164.514 21.8332 164.236 22.7082 163.81C23.5626 163.381 24.2836 162.777 24.8713 161.997C25.4617 161.197 25.8365 160.211 25.9956 159.038C26.1547 157.865 26.0548 156.825 25.6961 155.917C25.3401 154.989 24.8075 154.205 24.0982 153.564C23.3684 152.92 22.5161 152.406 21.5415 152.022C20.5696 151.618 19.559 151.345 18.5097 151.202C17.4604 151.06 16.4136 151.054 15.3691 151.185C14.3275 151.295 13.3795 151.565 12.5251 151.993C11.6501 152.42 10.9174 153.033 10.327 153.832C9.7393 154.612 9.36593 155.588 9.20684 156.761ZM6.05895 156.334C6.28224 154.688 6.79042 153.258 7.5835 152.046C8.37937 150.813 9.36336 149.815 10.5355 149.052C11.7076 148.289 13.0253 147.766 14.4885 147.483C15.9546 147.179 17.4694 147.133 19.0331 147.345C20.6173 147.56 22.0755 148.009 23.4075 148.693C24.7424 149.356 25.8731 150.211 26.7996 151.258C27.726 152.306 28.4086 153.53 28.8472 154.931C29.268 156.308 29.3668 157.819 29.1435 159.465C28.9202 161.111 28.4209 162.552 27.6456 163.788C26.8525 165 25.8699 165.988 24.6978 166.751C23.5257 167.514 22.2066 168.047 20.7406 168.351C19.2773 168.635 17.7536 168.669 16.1693 168.454C14.6057 168.242 13.1564 167.804 11.8216 167.141C10.4895 166.458 9.3602 165.592 8.43372 164.545C7.50723 163.497 6.82329 162.283 6.3819 160.903C5.94331 159.503 5.83565 157.98 6.05895 156.334Z" fill="white"/>
<path d="M13.1804 126.252L14.6311 122.472L33.0569 123.573L33.0792 123.515L18.6933 111.889L20.1105 108.196L38.1481 123.258L36.5969 127.3L13.1804 126.252Z" fill="white"/>
<path d="M21.5182 105.777L23.2194 102.275L43.2207 111.993L41.5194 115.495L21.5182 105.777Z" fill="white"/>
<path d="M25.8693 96.8074L34.1126 83.0848L36.996 84.8169L30.7573 95.2023L35.7498 98.2013L41.5233 88.5902L44.2465 90.226L38.473 99.8372L44.0528 103.189L50.4037 92.6168L53.287 94.3488L44.9314 108.258L25.8693 96.8074Z" fill="white"/>
<path d="M35.9857 79.5661L38.5171 76.5269L54.1544 84.3232L54.1942 84.2753L43.9986 69.9461L46.55 66.883L62.4065 74.4161L62.4464 74.3682L52.0315 60.3022L54.563 57.2631L67.7224 76.2093L65.191 79.2484L49.2747 71.7872L49.2348 71.835L59.3905 86.2121L56.8192 89.2991L35.9857 79.5661Z" fill="white"/>
<path d="M64.4979 48.3527L72.1713 42.2401C73.4055 41.2569 74.5547 40.6335 75.6188 40.3698C76.6829 40.1061 77.6396 40.0741 78.4887 40.2736C79.3379 40.4732 80.0878 40.8314 80.7385 41.3484C81.4054 41.8523 81.9524 42.3723 82.3793 42.9082C82.8062 43.4441 83.1907 44.0935 83.5329 44.8562C83.8783 45.5897 84.0534 46.3927 84.058 47.2649C84.0627 48.1372 83.8176 49.0625 83.3227 50.0407C82.8148 51.0027 81.9438 51.9753 80.7095 52.9585L76.0811 56.6455L81.3981 63.3202L78.3531 65.7458L64.4979 48.3527ZM74.1018 54.1608L78.5597 50.6096C78.9007 50.338 79.2111 50.0111 79.4907 49.6291C79.7704 49.247 79.9723 48.834 80.0964 48.39C80.2239 47.9169 80.2346 47.4305 80.1287 46.9309C80.026 46.4021 79.7547 45.8617 79.3149 45.3095C78.8621 44.7411 78.4057 44.3348 77.9458 44.0907C77.4858 43.8465 77.0337 43.7289 76.5895 43.7377C76.1323 43.7302 75.6927 43.8282 75.2707 44.0316C74.8488 44.235 74.4348 44.4984 74.0288 44.8219L69.5222 48.4118L74.1018 54.1608Z" fill="white"/>
<path d="M91.6638 32.05C90.647 32.6557 89.8863 33.3868 89.3815 34.2434C88.8945 35.0893 88.6264 35.9983 88.577 36.9702C88.517 37.9244 88.6315 38.9075 88.9202 39.9197C89.2269 40.9212 89.6512 41.8769 90.1931 42.7866C90.735 43.6963 91.3734 44.5245 92.1081 45.271C92.8607 46.0069 93.6761 46.5845 94.5543 47.0039C95.4218 47.4055 96.3435 47.5935 97.3192 47.5681C98.3128 47.5321 99.318 47.2112 100.335 46.6055C101.351 45.9999 102.103 45.274 102.59 44.4281C103.095 43.5715 103.377 42.6662 103.437 41.7121C103.487 40.7401 103.358 39.7534 103.052 38.7518C102.763 37.7396 102.347 36.7787 101.805 35.869C101.263 34.9592 100.616 34.1364 99.8636 33.4005C99.1289 32.654 98.3278 32.0799 97.4602 31.6784C96.582 31.259 95.6461 31.0673 94.6525 31.1034C93.6768 31.1288 92.6805 31.4443 91.6638 32.05ZM90.038 29.3209C91.465 28.4708 92.8998 27.9786 94.3423 27.8442C95.8027 27.6993 97.1963 27.8479 98.5231 28.2901C99.8499 28.7322 101.08 29.4376 102.213 30.4061C103.363 31.3641 104.342 32.5209 105.15 33.8765C105.968 35.25 106.525 36.6708 106.819 38.1388C107.131 39.5961 107.166 41.0135 106.923 42.3907C106.68 43.768 106.147 45.0642 105.324 46.2795C104.509 47.4662 103.388 48.4846 101.961 49.3347C100.534 50.1848 99.0952 50.6912 97.6454 50.854C96.2028 50.9884 94.8181 50.8344 93.4914 50.3923C92.1646 49.9501 90.9258 49.25 89.7751 48.2921C88.6423 47.3236 87.6668 46.1525 86.8485 44.779C86.0409 43.4234 85.481 42.0168 85.1687 40.5595C84.8742 39.0915 84.8484 37.6689 85.0913 36.2916C85.3343 34.9143 85.8582 33.6234 86.6632 32.4188C87.486 31.2036 88.6109 30.171 90.038 29.3209Z" fill="white"/>
<path d="M104.393 21.9435L114.19 17.8429C116.45 16.8969 118.35 16.6758 119.888 17.1796C121.427 17.6834 122.561 18.8068 123.291 20.5497C123.7 21.5265 123.897 22.4006 123.882 23.1721C123.859 23.9244 123.741 24.5818 123.526 25.1443C123.303 25.6877 123.037 26.1258 122.726 26.4585C122.434 26.7832 122.214 27.0103 122.065 27.1399L122.09 27.1974C122.412 27.1074 122.778 27.0669 123.187 27.0758C123.615 27.0767 124.054 27.1854 124.505 27.4019C124.947 27.5992 125.377 27.926 125.793 28.3821C126.228 28.8302 126.614 29.4564 126.951 30.2608C127.456 31.4675 128.003 32.5327 128.592 33.4565C129.192 34.3531 129.772 34.9319 130.332 35.1929L126.482 36.8043C126.03 36.476 125.662 36.0558 125.38 35.5435C125.118 35.0233 124.882 34.5142 124.674 34.0162C124.281 33.0777 123.887 32.2974 123.491 31.6751C123.088 31.0337 122.64 30.5569 122.15 30.2446C121.651 29.9132 121.089 29.7544 120.465 29.7682C119.859 29.774 119.145 29.9492 118.321 30.294L113.035 32.5066L116.57 40.953L112.979 42.4561L104.393 21.9435ZM111.893 29.7773L117.782 27.3122C118.931 26.8312 119.691 26.1983 120.06 25.4135C120.421 24.6095 120.373 23.6617 119.916 22.57C119.644 21.9188 119.328 21.4322 118.968 21.1101C118.6 20.7689 118.195 20.5556 117.754 20.47C117.333 20.3765 116.885 20.3836 116.413 20.4914C115.959 20.5911 115.503 20.7372 115.043 20.9296L109.211 23.3707L111.893 29.7773Z" fill="white"/>
<path d="M123.661 14.0312L141 9.19109L141.904 12.4308L135.095 14.3317L140.169 32.5102L136.419 33.5569L131.345 15.3784L124.565 17.2709L123.661 14.0312Z" fill="white"/>
<path d="M145.762 8.2113L160.934 5.85579L161.45 9.17956L150.125 10.9378L151.018 16.6929L160.959 15.1496L161.446 18.2887L151.506 19.832L153.02 29.5879L149.173 30.1851L145.762 8.2113Z" fill="white"/>
<path d="M175.944 7.68591C174.761 7.71331 173.739 7.97582 172.878 8.47344C172.038 8.97057 171.357 9.63015 170.836 10.4522C170.315 11.2535 169.931 12.1658 169.685 13.1891C169.459 14.212 169.359 15.2528 169.383 16.3114C169.408 17.37 169.557 18.405 169.829 19.4163C170.123 20.4272 170.548 21.3312 171.107 22.1282C171.665 22.9045 172.375 23.5215 173.237 23.9792C174.12 24.4364 175.153 24.6513 176.336 24.6239C177.519 24.5965 178.531 24.3342 179.371 23.8371C180.232 23.3395 180.923 22.69 181.444 21.8887C181.965 21.0667 182.338 20.1443 182.564 19.1214C182.81 18.098 182.921 17.057 182.896 15.9984C182.872 14.9398 182.713 13.905 182.42 12.8942C182.147 11.8828 181.732 10.989 181.174 10.2127C180.615 9.41571 179.895 8.78858 179.012 8.33136C178.15 7.87365 177.127 7.6585 175.944 7.68591ZM175.87 4.51004C177.531 4.47157 179.022 4.74855 180.344 5.34098C181.687 5.93293 182.828 6.74764 183.765 7.78511C184.703 8.82258 185.427 10.0415 185.937 11.442C186.468 12.8419 186.752 14.3307 186.788 15.9082C186.825 17.5066 186.611 19.0172 186.146 20.4403C185.701 21.8628 185.034 23.114 184.145 24.1938C183.257 25.2736 182.155 26.1402 180.841 26.7937C179.547 27.4259 178.07 27.7613 176.41 27.7998C174.749 27.8382 173.248 27.5719 171.905 27.0007C170.583 26.4082 169.453 25.5933 168.515 24.5558C167.577 23.5184 166.843 22.2996 166.312 20.8997C165.802 19.4992 165.528 17.9999 165.491 16.4016C165.455 14.824 165.659 13.3239 166.104 11.9014C166.569 10.4783 167.246 9.22693 168.135 8.14716C169.024 7.06738 170.115 6.20098 171.408 5.54797C172.722 4.89448 174.21 4.5485 175.87 4.51004Z" fill="white"/>
<path d="M192.478 5.27479L196.349 5.69419L194.315 24.4578L205.555 25.6758L205.193 29.0198L190.083 27.3824L192.478 5.27479Z" fill="white"/>
<path d="M210.641 7.59944L214.465 8.32884L210.299 30.1721L206.475 29.4427L210.641 7.59944Z" fill="white"/>
<path d="M229.67 14.8282C228.537 14.4885 227.484 14.4222 226.511 14.6293C225.559 14.8424 224.708 15.2593 223.958 15.88C223.214 16.4808 222.567 17.2298 222.017 18.1269C221.486 19.0299 221.069 19.9886 220.765 21.003C220.461 22.0173 220.282 23.0475 220.229 24.0936C220.195 25.1456 220.321 26.137 220.606 27.0676C220.896 27.9784 221.381 28.7847 222.059 29.4865C222.757 30.1942 223.673 30.718 224.807 31.0577C225.941 31.3974 226.984 31.4608 227.936 31.2477C228.909 31.0406 229.767 30.6366 230.51 30.0358C231.26 29.4151 231.9 28.6532 232.431 27.7501C232.981 26.853 233.409 25.8973 233.713 24.883C234.017 23.8687 234.185 22.8355 234.219 21.7834C234.272 20.7373 234.153 19.7589 233.863 18.8482C233.578 17.9175 233.087 17.0983 232.388 16.3905C231.71 15.6887 230.804 15.168 229.67 14.8282ZM230.582 11.7852C232.173 12.262 233.506 12.9865 234.58 13.9587C235.674 14.9368 236.507 16.0641 237.078 17.3407C237.649 18.6173 237.961 20.0004 238.013 21.4899C238.085 22.9854 237.895 24.4889 237.442 26.0005C236.983 27.532 236.312 28.9024 235.429 30.1118C234.567 31.3272 233.546 32.3109 232.367 33.063C231.188 33.8151 229.872 34.2988 228.421 34.514C226.995 34.7153 225.486 34.5776 223.895 34.1007C222.304 33.6239 220.958 32.9064 219.858 31.9482C218.784 30.976 217.961 29.8517 217.39 28.5751C216.819 27.2985 216.497 25.9124 216.425 24.4169C216.373 22.9274 216.577 21.4169 217.036 19.8854C217.489 18.3739 218.146 17.0104 219.009 15.795C219.892 14.5856 220.923 13.6048 222.102 12.8528C223.281 12.1007 224.586 11.614 226.018 11.3928C227.47 11.1776 228.991 11.3084 230.582 11.7852Z" fill="white"/>
<path d="M259.236 23.4837L262.745 25.5043L258.794 43.535L258.848 43.5661L272.569 31.1622L275.996 33.1362L258.313 48.6132L254.562 46.4527L259.236 23.4837Z" fill="white"/>
<path d="M278.893 35.3809L282.083 37.6131L269.333 55.8318L266.143 53.5996L278.893 35.3809Z" fill="white"/>
<path d="M286.93 41.0108L299.192 51.3009L297.03 53.8776L287.75 46.0899L284.006 50.5513L292.595 57.7584L290.553 60.1918L281.964 52.9847L277.78 57.971L287.227 65.8988L285.065 68.4754L272.636 58.0451L286.93 41.0108Z" fill="white"/>
<path d="M302.335 53.7047L304.943 56.6784L294.807 70.9114L294.848 70.9582L310.59 63.1175L313.218 66.1146L303.309 80.6051L303.35 80.652L318.866 72.5537L321.474 75.5274L300.71 85.5771L298.102 82.6034L307.95 68.0426L307.909 67.9958L292.126 75.7897L289.477 72.7691L302.335 53.7047Z" fill="white"/>
<path d="M328.816 86.9651L333.649 95.5023C334.427 96.8754 334.862 98.1082 334.956 99.2005C335.049 100.293 334.931 101.243 334.6 102.05C334.27 102.857 333.799 103.542 333.186 104.103C332.584 104.683 331.985 105.142 331.388 105.479C330.792 105.817 330.09 106.095 329.283 106.313C328.505 106.539 327.684 106.586 326.822 106.454C325.96 106.322 325.085 105.934 324.196 105.292C323.326 104.64 322.502 103.627 321.724 102.254L318.809 97.1043L311.383 101.309L309.465 97.9208L328.816 86.9651ZM321.573 95.5392L324.381 100.499C324.596 100.878 324.87 101.236 325.204 101.572C325.537 101.908 325.913 102.172 326.332 102.365C326.78 102.565 327.258 102.652 327.768 102.625C328.307 102.607 328.883 102.424 329.497 102.076C330.13 101.718 330.603 101.331 330.916 100.915C331.229 100.499 331.416 100.071 331.477 99.6309C331.556 99.1805 331.528 98.731 331.394 98.2824C331.259 97.8337 331.064 97.3835 330.808 96.9318L327.969 91.9179L321.573 95.5392Z" fill="white"/>
<path d="M340.412 115.898C339.971 114.8 339.367 113.935 338.599 113.303C337.839 112.691 336.982 112.285 336.03 112.086C335.097 111.878 334.108 111.839 333.063 111.967C332.026 112.114 331.016 112.385 330.033 112.78C329.05 113.174 328.133 113.676 327.282 114.286C326.438 114.915 325.741 115.631 325.19 116.433C324.659 117.228 324.33 118.109 324.204 119.077C324.085 120.064 324.246 121.107 324.687 122.206C325.127 123.304 325.728 124.159 326.488 124.772C327.256 125.403 328.106 125.823 329.039 126.03C329.992 126.23 330.987 126.256 332.024 126.108C333.069 125.98 334.082 125.719 335.065 125.325C336.048 124.93 336.961 124.419 337.805 123.789C338.656 123.179 339.348 122.477 339.879 121.682C340.43 120.88 340.764 119.985 340.883 118.998C341.009 118.03 340.852 116.997 340.412 115.898ZM343.36 114.716C343.978 116.258 344.242 117.751 344.151 119.197C344.067 120.662 343.704 122.016 343.062 123.258C342.419 124.5 341.531 125.606 340.399 126.575C339.274 127.563 337.979 128.35 336.514 128.938C335.03 129.533 333.541 129.862 332.045 129.925C330.557 130.008 329.151 129.822 327.828 129.368C326.505 128.915 325.307 128.187 324.235 127.186C323.189 126.196 322.357 124.93 321.738 123.388C321.12 121.847 320.843 120.347 320.907 118.89C320.998 117.444 321.365 116.1 322.008 114.858C322.651 113.615 323.534 112.5 324.659 111.512C325.792 110.543 327.1 109.761 328.584 109.166C330.049 108.579 331.525 108.244 333.013 108.162C334.509 108.098 335.918 108.294 337.241 108.747C338.564 109.201 339.758 109.919 340.823 110.901C341.896 111.903 342.742 113.174 343.36 114.716Z" fill="white"/>
<path d="M348.258 129.635L350.802 139.946C351.388 142.324 351.314 144.235 350.58 145.678C349.845 147.121 348.56 148.069 346.726 148.521C345.698 148.775 344.804 148.835 344.044 148.702C343.304 148.564 342.673 148.345 342.15 148.046C341.647 147.743 341.256 147.412 340.975 147.053C340.699 146.715 340.508 146.462 340.403 146.296L340.342 146.311C340.382 146.643 340.365 147.011 340.294 147.414C340.227 147.836 340.052 148.254 339.769 148.666C339.505 149.073 339.117 149.447 338.602 149.788C338.092 150.149 337.414 150.434 336.567 150.642C335.297 150.956 334.16 151.332 333.157 151.772C332.179 152.228 331.517 152.711 331.173 153.224L330.174 149.172C330.568 148.776 331.04 148.477 331.589 148.278C332.144 148.098 332.683 147.944 333.207 147.814C334.195 147.571 335.027 147.301 335.702 147.006C336.398 146.706 336.938 146.338 337.322 145.901C337.727 145.459 337.97 144.929 338.052 144.31C338.14 143.711 338.077 142.978 337.863 142.111L336.49 136.547L327.6 138.74L326.668 134.96L348.258 129.635ZM339.363 135.838L340.892 142.037C341.191 143.247 341.699 144.094 342.418 144.58C343.156 145.061 344.1 145.159 345.249 144.876C345.935 144.707 346.464 144.469 346.838 144.163C347.232 143.852 347.505 143.486 347.657 143.063C347.814 142.661 347.876 142.218 347.842 141.734C347.814 141.271 347.74 140.797 347.62 140.313L346.106 134.175L339.363 135.838Z" fill="white"/>
<path d="M353.21 150.702L355.287 168.583L351.946 168.971L351.13 161.949L332.382 164.126L331.933 160.259L350.681 158.082L349.869 151.09L353.21 150.702Z" fill="white"/>
</g>
</svg>
